<?xml version="1.0" encoding="UTF-8"?>
<!--Generator: Apple Native CoreSVG 175.5-->
<!DOCTYPE svg
PUBLIC "-//W3C//DTD SVG 1.1//EN"
       "http://www.w3.org/Graphics/SVG/1.1/DTD/svg11.dtd">
<svg version="1.1" xmlns="http://www.w3.org/2000/svg" xmlns:xlink="http://www.w3.org/1999/xlink" width="3300" height="2200">
 <!--glyph: "uni100184.medium", point size: 100.0, font version: "18.0d12e2", template writer version: "101"-->
 <g id="Notes">
  <rect height="2200" id="artboard" style="fill:white;opacity:1" width="3300" x="0" y="0"/>
  <line style="fill:none;stroke:black;opacity:1;stroke-width:0.5;" x1="263" x2="3036" y1="292" y2="292"/>
  <text style="stroke:none;fill:black;font-family:sans-serif;font-size:13;font-weight:bold;" transform="matrix(1 0 0 1 263 322)">Weight/Scale Variations</text>
  <text style="stroke:none;fill:black;font-family:sans-serif;font-size:13;text-anchor:middle;" transform="matrix(1 0 0 1 559.711 322)">Ultralight</text>
  <text style="stroke:none;fill:black;font-family:sans-serif;font-size:13;text-anchor:middle;" transform="matrix(1 0 0 1 856.422 322)">Thin</text>
  <text style="stroke:none;fill:black;font-family:sans-serif;font-size:13;text-anchor:middle;" transform="matrix(1 0 0 1 1153.13 322)">Light</text>
  <text style="stroke:none;fill:black;font-family:sans-serif;font-size:13;text-anchor:middle;" transform="matrix(1 0 0 1 1449.84 322)">Regular</text>
  <text style="stroke:none;fill:black;font-family:sans-serif;font-size:13;text-anchor:middle;" transform="matrix(1 0 0 1 1746.56 322)">Medium</text>
  <text style="stroke:none;fill:black;font-family:sans-serif;font-size:13;text-anchor:middle;" transform="matrix(1 0 0 1 2043.27 322)">Semibold</text>
  <text style="stroke:none;fill:black;font-family:sans-serif;font-size:13;text-anchor:middle;" transform="matrix(1 0 0 1 2339.98 322)">Bold</text>
  <text style="stroke:none;fill:black;font-family:sans-serif;font-size:13;text-anchor:middle;" transform="matrix(1 0 0 1 2636.69 322)">Heavy</text>
  <text style="stroke:none;fill:black;font-family:sans-serif;font-size:13;text-anchor:middle;" transform="matrix(1 0 0 1 2933.4 322)">Black</text>
  <line style="fill:none;stroke:black;opacity:1;stroke-width:0.5;" x1="263" x2="3036" y1="1903" y2="1903"/>
  <g transform="matrix(1 0 0 1 263 1933)">
   <path d="M9.24805 0.830078C13.5547 0.830078 17.1387-2.74414 17.1387-7.05078C17.1387-11.3574 13.5449-14.9316 9.23828-14.9316C4.94141-14.9316 1.36719-11.3574 1.36719-7.05078C1.36719-2.74414 4.95117 0.830078 9.24805 0.830078ZM9.24805-0.654297C5.70312-0.654297 2.87109-3.49609 2.87109-7.05078C2.87109-10.6055 5.69336-13.4473 9.23828-13.4473C12.793-13.4473 15.6445-10.6055 15.6445-7.05078C15.6445-3.49609 12.8027-0.654297 9.24805-0.654297ZM5.6543-7.05078C5.6543-6.62109 5.95703-6.32812 6.40625-6.32812L8.50586-6.32812L8.50586-4.20898C8.50586-3.76953 8.79883-3.4668 9.22852-3.4668C9.67773-3.4668 9.9707-3.76953 9.9707-4.20898L9.9707-6.32812L12.0898-6.32812C12.5293-6.32812 12.832-6.62109 12.832-7.05078C12.832-7.49023 12.5293-7.79297 12.0898-7.79297L9.9707-7.79297L9.9707-9.90234C9.9707-10.3516 9.67773-10.6543 9.22852-10.6543C8.79883-10.6543 8.50586-10.3516 8.50586-9.90234L8.50586-7.79297L6.40625-7.79297C5.95703-7.79297 5.6543-7.49023 5.6543-7.05078Z"/>
  </g>
  <g transform="matrix(1 0 0 1 281.867 1933)">
   <path d="M11.709 2.91016C17.1582 2.91016 21.6699-1.61133 21.6699-7.05078C21.6699-12.5 17.1484-17.0117 11.6992-17.0117C6.25977-17.0117 1.74805-12.5 1.74805-7.05078C1.74805-1.61133 6.26953 2.91016 11.709 2.91016ZM11.709 1.25C7.09961 1.25 3.41797-2.44141 3.41797-7.05078C3.41797-11.6602 7.08984-15.3516 11.6992-15.3516C16.3086-15.3516 20.0098-11.6602 20.0098-7.05078C20.0098-2.44141 16.3184 1.25 11.709 1.25ZM7.17773-7.05078C7.17773-6.57227 7.50977-6.25 8.00781-6.25L10.8789-6.25L10.8789-3.36914C10.8789-2.88086 11.2109-2.53906 11.6895-2.53906C12.1777-2.53906 12.5195-2.87109 12.5195-3.36914L12.5195-6.25L15.4004-6.25C15.8887-6.25 16.2305-6.57227 16.2305-7.05078C16.2305-7.53906 15.8887-7.88086 15.4004-7.88086L12.5195-7.88086L12.5195-10.752C12.5195-11.25 12.1777-11.5918 11.6895-11.5918C11.2109-11.5918 10.8789-11.25 10.8789-10.752L10.8789-7.88086L8.00781-7.88086C7.50977-7.88086 7.17773-7.53906 7.17773-7.05078Z"/>
  </g>
  <g transform="matrix(1 0 0 1 305.646 1933)">
   <path d="M14.9707 5.66406C21.9336 5.66406 27.6953-0.0976562 27.6953-7.05078C27.6953-14.0137 21.9238-19.7754 14.9609-19.7754C8.00781-19.7754 2.25586-14.0137 2.25586-7.05078C2.25586-0.0976562 8.01758 5.66406 14.9707 5.66406ZM14.9707 3.84766C8.93555 3.84766 4.08203-1.01562 4.08203-7.05078C4.08203-13.0957 8.92578-17.9492 14.9609-17.9492C21.0059-17.9492 25.8691-13.0957 25.8691-7.05078C25.8691-1.01562 21.0156 3.84766 14.9707 3.84766ZM9.19922-7.05078C9.19922-6.5332 9.57031-6.17188 10.1172-6.17188L14.0625-6.17188L14.0625-2.2168C14.0625-1.67969 14.4336-1.29883 14.9512-1.29883C15.4883-1.29883 15.8594-1.66992 15.8594-2.2168L15.8594-6.17188L19.8145-6.17188C20.3516-6.17188 20.7324-6.5332 20.7324-7.05078C20.7324-7.59766 20.3613-7.96875 19.8145-7.96875L15.8594-7.96875L15.8594-11.9141C15.8594-12.4609 15.4883-12.8418 14.9512-12.8418C14.4336-12.8418 14.0625-12.4609 14.0625-11.9141L14.0625-7.96875L10.1172-7.96875C9.57031-7.96875 9.19922-7.59766 9.19922-7.05078Z"/>
  </g>
  <text style="stroke:none;fill:black;font-family:sans-serif;font-size:13;font-weight:bold;" transform="matrix(1 0 0 1 263 1953)">Design Variations</text>
  <text style="stroke:none;fill:black;font-family:sans-serif;font-size:13;" transform="matrix(1 0 0 1 263 1971)">Symbols are supported in up to nine weights and three scales.</text>
  <text style="stroke:none;fill:black;font-family:sans-serif;font-size:13;" transform="matrix(1 0 0 1 263 1989)">For optimal layout with text and other symbols, vertically align</text>
  <text style="stroke:none;fill:black;font-family:sans-serif;font-size:13;" transform="matrix(1 0 0 1 263 2007)">symbols with the adjacent text.</text>
  <line style="fill:none;stroke:#00AEEF;stroke-width:0.5;opacity:1.0;" x1="776" x2="776" y1="1919" y2="1933"/>
  <g transform="matrix(1 0 0 1 776 1933)">
   <path d="M3.31055 0.15625C3.82812 0.15625 4.08203-0.0390625 4.26758-0.585938L5.52734-4.0332L11.2891-4.0332L12.5488-0.585938C12.7344-0.0390625 12.9883 0.15625 13.4961 0.15625C14.0137 0.15625 14.3457-0.15625 14.3457-0.644531C14.3457-0.810547 14.3164-0.966797 14.2383-1.17188L9.6582-13.3691C9.43359-13.9648 9.0332-14.2676 8.4082-14.2676C7.80273-14.2676 7.39258-13.9746 7.17773-13.3789L2.59766-1.16211C2.51953-0.957031 2.49023-0.800781 2.49023-0.634766C2.49023-0.146484 2.80273 0.15625 3.31055 0.15625ZM6.00586-5.51758L8.37891-12.0898L8.42773-12.0898L10.8008-5.51758Z"/>
  </g>
  <line style="fill:none;stroke:#00AEEF;stroke-width:0.5;opacity:1.0;" x1="793.197" x2="793.197" y1="1919" y2="1933"/>
  <text style="stroke:none;fill:black;font-family:sans-serif;font-size:13;font-weight:bold;" transform="matrix(1 0 0 1 776 1953)">Margins</text>
  <text style="stroke:none;fill:black;font-family:sans-serif;font-size:13;" transform="matrix(1 0 0 1 776 1971)">Leading and trailing margins on the left and right side of each symbol</text>
  <text style="stroke:none;fill:black;font-family:sans-serif;font-size:13;" transform="matrix(1 0 0 1 776 1989)">can be adjusted by modifying the x-location of the margin guidelines.</text>
  <text style="stroke:none;fill:black;font-family:sans-serif;font-size:13;" transform="matrix(1 0 0 1 776 2007)">Modifications are automatically applied proportionally to all</text>
  <text style="stroke:none;fill:black;font-family:sans-serif;font-size:13;" transform="matrix(1 0 0 1 776 2025)">scales and weights.</text>
  <g transform="matrix(1 0 0 1 1289 1933)">
   <path d="M2.8418 1.86523L4.54102 3.57422C5.40039 4.44336 6.38672 4.38477 7.31445 3.35938L18.0078-8.42773L17.041-9.4043L6.42578 2.27539C6.07422 2.67578 5.74219 2.77344 5.27344 2.30469L4.10156 1.14258C3.63281 0.683594 3.74023 0.341797 4.14062-0.0195312L15.6152-10.8203L14.6387-11.7871L3.04688-0.898438C2.06055 0.0195312 1.98242 0.996094 2.8418 1.86523ZM9.25781-16.3281C8.83789-15.918 8.80859-15.3418 9.04297-14.9512C9.27734-14.5898 9.73633-14.3555 10.3809-14.5215C11.8457-14.8633 13.3691-14.9219 14.7949-13.9844L14.209-12.5293C13.8672-11.6992 14.043-11.1133 14.5801-10.5664L16.875-8.25195C17.3633-7.76367 17.7734-7.74414 18.3398-7.8418L19.4043-8.03711L20.0684-7.36328L20.0293-6.80664C19.9902-6.30859 20.1172-5.92773 20.6055-5.44922L21.3672-4.70703C21.8457-4.22852 22.4609-4.19922 22.9297-4.66797L25.8398-7.58789C26.3086-8.05664 26.2891-8.65234 25.8105-9.13086L25.0391-9.89258C24.5605-10.3711 24.1895-10.5273 23.7109-10.4883L23.1348-10.4395L22.4902-11.0742L22.7344-12.1973C22.8613-12.7637 22.7051-13.2031 22.1191-13.7891L19.9219-15.9766C16.582-19.2969 12.1484-19.2188 9.25781-16.3281ZM10.752-15.957C13.1836-17.7344 16.4746-17.4316 18.7012-15.2051L21.1328-12.793C21.3672-12.5586 21.4062-12.373 21.3379-12.0312L21.0156-10.5469L22.5195-9.0625L23.5059-9.12109C23.7598-9.13086 23.8379-9.11133 24.0332-8.91602L24.6094-8.33984L22.168-5.89844L21.5918-6.47461C21.3965-6.66992 21.3672-6.74805 21.377-7.01172L21.4453-7.98828L19.9512-9.47266L18.4277-9.21875C18.1055-9.15039 17.959-9.17969 17.7148-9.41406L15.7129-11.416C15.459-11.6504 15.4297-11.8164 15.5859-12.1875L16.4648-14.2773C14.9023-15.7324 12.8711-16.3574 10.8398-15.7617C10.6836-15.7227 10.625-15.8496 10.752-15.957Z"/>
  </g>
  <text style="stroke:none;fill:black;font-family:sans-serif;font-size:13;font-weight:bold;" transform="matrix(1 0 0 1 1289 1953)">Exporting</text>
  <text style="stroke:none;fill:black;font-family:sans-serif;font-size:13;" transform="matrix(1 0 0 1 1289 1971)">Symbols should be outlined when exporting to ensure the</text>
  <text style="stroke:none;fill:black;font-family:sans-serif;font-size:13;" transform="matrix(1 0 0 1 1289 1989)">design is preserved when submitting to Xcode.</text>
  <text id="template-version" style="stroke:none;fill:black;font-family:sans-serif;font-size:13;text-anchor:end;" transform="matrix(1 0 0 1 3036 1933)">Template v.4.0</text>
  <text style="stroke:none;fill:black;font-family:sans-serif;font-size:13;text-anchor:end;" transform="matrix(1 0 0 1 3036 1951)">Requires Xcode 14 or greater</text>
  <text id="descriptive-name" style="stroke:none;fill:black;font-family:sans-serif;font-size:13;text-anchor:end;" transform="matrix(1 0 0 1 3036 1969)">Generated from xmark</text>
  <text style="stroke:none;fill:black;font-family:sans-serif;font-size:13;text-anchor:end;" transform="matrix(1 0 0 1 3036 1987)">Typeset at 100 points</text>
  <text style="stroke:none;fill:black;font-family:sans-serif;font-size:13;" transform="matrix(1 0 0 1 263 726)">Small</text>
  <text style="stroke:none;fill:black;font-family:sans-serif;font-size:13;" transform="matrix(1 0 0 1 263 1156)">Medium</text>
  <text style="stroke:none;fill:black;font-family:sans-serif;font-size:13;" transform="matrix(1 0 0 1 263 1586)">Large</text>
 </g>
 <g id="Guides">
  <g id="H-reference" style="fill:#27AAE1;stroke:none;" transform="matrix(1 0 0 1 339 696)">
   <path d="M0.993654 0L3.63775 0L29.3281-67.1323L30.0303-67.1323L30.0303-70.459L28.1226-70.459ZM11.6885-24.4799L46.9815-24.4799L46.2315-26.7285L12.4385-26.7285ZM55.1196 0L57.7637 0L30.6382-70.459L29.4326-70.459L29.4326-67.1323Z"/>
  </g>
  <line id="Baseline-S" style="fill:none;stroke:#27AAE1;opacity:1;stroke-width:0.5;" x1="263" x2="3036" y1="696" y2="696"/>
  <line id="Capline-S" style="fill:none;stroke:#27AAE1;opacity:1;stroke-width:0.5;" x1="263" x2="3036" y1="625.541" y2="625.541"/>
  <g id="H-reference" style="fill:#27AAE1;stroke:none;" transform="matrix(1 0 0 1 339 1126)">
   <path d="M0.993654 0L3.63775 0L29.3281-67.1323L30.0303-67.1323L30.0303-70.459L28.1226-70.459ZM11.6885-24.4799L46.9815-24.4799L46.2315-26.7285L12.4385-26.7285ZM55.1196 0L57.7637 0L30.6382-70.459L29.4326-70.459L29.4326-67.1323Z"/>
  </g>
  <line id="Baseline-M" style="fill:none;stroke:#27AAE1;opacity:1;stroke-width:0.5;" x1="263" x2="3036" y1="1126" y2="1126"/>
  <line id="Capline-M" style="fill:none;stroke:#27AAE1;opacity:1;stroke-width:0.5;" x1="263" x2="3036" y1="1055.54" y2="1055.54"/>
  <g id="H-reference" style="fill:#27AAE1;stroke:none;" transform="matrix(1 0 0 1 339 1556)">
   <path d="M0.993654 0L3.63775 0L29.3281-67.1323L30.0303-67.1323L30.0303-70.459L28.1226-70.459ZM11.6885-24.4799L46.9815-24.4799L46.2315-26.7285L12.4385-26.7285ZM55.1196 0L57.7637 0L30.6382-70.459L29.4326-70.459L29.4326-67.1323Z"/>
  </g>
  <line id="Baseline-L" style="fill:none;stroke:#27AAE1;opacity:1;stroke-width:0.5;" x1="263" x2="3036" y1="1556" y2="1556"/>
  <line id="Capline-L" style="fill:none;stroke:#27AAE1;opacity:1;stroke-width:0.5;" x1="263" x2="3036" y1="1485.54" y2="1485.54"/>
  <line id="left-margin-Regular-M" style="fill:none;stroke:#00AEEF;stroke-width:0.5;opacity:1.0;" x1="1398.69" x2="1398.69" y1="1030.79" y2="1150.12"/>
  <line id="right-margin-Regular-M" style="fill:none;stroke:#00AEEF;stroke-width:0.5;opacity:1.0;" x1="1501" x2="1501" y1="1030.79" y2="1150.12"/>
 </g>
 <g id="Symbols">
  <g id="Black-L" transform="matrix(1 0 0 1 2863.85 1556)">
   <path d="M19.4903 14.8986C24.078 19.4656 32.0073 19.2903 36.225 15.0738L69.5758-18.299L102.832 15.0154C107.261 19.4656 114.978 19.4071 119.546 14.8402C124.113 10.2513 124.171 2.55567 119.721-1.87484L86.4649-35.1881L119.721-68.4221C124.171-72.8734 124.133-80.5898 119.546-85.1568C114.957-89.7041 107.261-89.7625 102.832-85.332L69.5758-52.0772L36.225-85.3904C32.0073-89.5873 24.0572-89.7833 19.4903-85.2152C14.943-80.6274 15.1182-72.6982 19.3151-68.4805L52.6867-35.1881L19.3151-1.81643C15.1182 2.38045 14.9221 10.3305 19.4903 14.8986Z"/>
  </g>
  <g id="Heavy-L" transform="matrix(1 0 0 1 2568.03 1556)">
   <path d="M19.043 14.4569C23.0379 18.4216 29.8901 18.2877 33.5927 14.5907L68.6779-20.5303L103.71 14.5461C107.555 18.4216 114.259 18.3769 118.229 14.4122C122.194 10.4117 122.239 3.73802 118.363-0.11288L83.3313-35.1837L118.363-70.1797C122.239-74.0607 122.224-80.7646 118.229-84.7293C114.229-88.6695 107.555-88.7141 103.71-84.8632L68.6779-49.837L33.5927-84.9078C29.8901-88.5802 23.0078-88.7443 19.043-84.774C15.1029-80.779 15.2368-73.9269 18.9092-70.2243L54.0246-35.1837L18.9092-0.0682571C15.2368 3.60416 15.0727 10.4865 19.043 14.4569Z"/>
  </g>
  <g id="Bold-L" transform="matrix(1 0 0 1 2272.43 1556)">
   <path d="M18.4972 13.9038C21.762 17.1306 27.2996 17.043 30.3645 13.9914L67.5638-23.2592L104.756 13.9622C107.886 17.1306 113.345 17.1014 116.585 13.8746C119.812 10.5966 119.841 5.17576 116.673 2.03211L79.4807-35.1761L116.673-72.317C119.841-75.4987 119.85-80.9574 116.585-84.1843C113.307-87.3863 107.886-87.4155 104.756-84.2719L67.5638-47.0929L30.3645-84.3011C27.2996-87.3279 21.724-87.4535 18.4972-84.2135C15.2952-80.9487 15.3828-75.411 18.4096-72.3462L55.647-35.1761L18.4096 2.06131C15.3828 5.08815 15.2572 10.6637 18.4972 13.9038Z"/>
  </g>
  <g id="Semibold-L" transform="matrix(1 0 0 1 1976.48 1556)">
   <path d="M18.1209 13.5225C20.8824 16.2406 25.5138 16.1849 28.1389 13.5782L66.7958-25.1405L105.477 13.5597C108.115 16.2406 112.715 16.222 115.452 13.5039C118.17 10.724 118.189 6.16692 115.508 3.51085L76.8261-35.1708L115.508-73.7905C118.189-76.4899 118.213-81.0904 115.452-83.8085C112.672-86.5017 108.115-86.5203 105.477-83.8642L66.7958-45.2011L28.1389-83.8828C25.5138-86.4646 20.839-86.5636 18.1209-83.8271C15.4277-81.0656 15.4834-76.4342 18.0652-73.8091L56.7654-35.1708L18.0652 3.52942C15.4834 6.1112 15.3844 10.7859 18.1209 13.5225Z"/>
  </g>
  <g id="Medium-L" transform="matrix(1 0 0 1 1680.35 1556)">
   <path d="M17.8356 13.2334C20.2154 15.5658 24.1597 15.5342 26.4514 13.265L66.2134-26.5669L106.024 13.2544C108.288 15.5658 112.238 15.5553 114.593 13.2229C116.925 10.8206 116.935 6.91846 114.624 4.63209L74.8133-35.1668L114.624-74.9078C116.935-77.2416 116.972-81.1912 114.593-83.5236C112.19-85.831 108.288-85.8415 106.024-83.5551L66.2134-43.7667L26.4514-83.5656C24.1597-85.8099 20.168-85.8889 17.8356-83.5341C15.5282-81.1543 15.5598-77.21 17.8041-74.9183L57.6135-35.1668L17.8041 4.6426C15.5598 6.88692 15.4808 10.8786 17.8356 13.2334Z"/>
  </g>
  <g id="Regular-L" transform="matrix(1 0 0 1 1384.39 1556)">
   <path d="M17.4635 12.8563C19.3455 14.6856 22.3934 14.6856 24.2503 12.8563L65.4538-28.4275L106.738 12.8563C108.514 14.6856 111.615 14.6856 113.472 12.8563C115.301 10.9466 115.301 7.89873 113.472 6.09458L72.1879-35.1616L113.472-76.3651C115.301-78.222 115.354-81.3227 113.472-83.1519C111.562-84.9561 108.514-84.9561 106.738-83.1519L65.4538-41.8957L24.2503-83.1519C22.3934-84.9561 19.2927-85.0088 17.4635-83.1519C15.6593-81.2699 15.6593-78.222 17.4635-76.3651L58.7197-35.1616L17.4635 6.09458C15.6593 7.89873 15.6066 10.9994 17.4635 12.8563Z"/>
  </g>
  <g id="Light-L" transform="matrix(1 0 0 1 1088.46 1556)">
   <path d="M17.139 12.4364C18.5439 13.8077 20.8093 13.8077 22.2273 12.4364L64.6713-30.088L107.196 12.4364C108.533 13.8077 110.832 13.8077 112.25 12.4364C113.621 10.9848 113.621 8.7194 112.25 7.33513L69.7259-35.1425L112.25-77.5865C113.621-79.0045 113.655-81.3036 112.25-82.6748C110.799-84.0591 108.533-84.0591 107.196-82.6748L64.6713-40.1971L22.2273-82.6748C20.8093-84.0591 18.5102-84.0927 17.139-82.6748C15.7548-81.2699 15.7548-79.0045 17.139-77.5865L59.6167-35.1425L17.139 7.33513C15.7548 8.7194 15.7211 11.0185 17.139 12.4364Z"/>
  </g>
  <g id="Thin-L" transform="matrix(1 0 0 1 792.786 1556)">
   <path d="M16.7099 11.8811C17.4838 12.6465 18.7143 12.6465 19.5517 11.8811L63.6364-32.284L107.801 11.8811C108.558 12.6465 109.797 12.6465 110.635 11.8811C111.4 11.0353 111.4 9.8048 110.635 8.97584L66.4697-35.1173L110.635-79.202C111.4-80.0394 111.409-81.2783 110.635-82.0437C109.789-82.8727 108.558-82.8727 107.801-82.0437L63.6364-37.9506L19.5517-82.0437C18.7143-82.8727 17.4753-82.8811 16.7099-82.0437C15.881-81.2699 15.881-80.0394 16.7099-79.202L60.8031-35.1173L16.7099 8.97584C15.881 9.8048 15.8725 11.0437 16.7099 11.8811Z"/>
  </g>
  <g id="Ultralight-L" transform="matrix(1 0 0 1 496.605 1556)">
   <path d="M16.4901 11.5967C16.9408 12.0518 17.6412 12.0518 18.1812 11.5967L63.1063-33.4088L108.112 11.5967C108.571 12.0518 109.267 12.0518 109.807 11.5967C110.262 11.0612 110.262 10.3607 109.807 9.81621L64.8019-35.1044L109.807-80.0294C110.262-80.5695 110.258-81.2654 109.807-81.7205C109.272-82.265 108.571-82.265 108.112-81.7205L63.1063-36.7999L18.1812-81.7205C17.6412-82.265 16.9452-82.2606 16.4901-81.7205C15.9456-81.2699 15.9456-80.5695 16.4901-80.0294L61.4107-35.1044L16.4901 9.81621C15.9456 10.3607 15.9501 11.0567 16.4901 11.5967Z"/>
  </g>
  <g id="Black-M" transform="matrix(1 0 0 1 2878.86 1126)">
   <path d="M15.4404 3.92963C19.4396 7.92334 26.4023 7.75205 30.0531 4.10092L54.5689-20.4201L78.9757 4.04382C82.8497 7.92334 89.5895 7.86624 93.583 3.87254C97.5767-0.12638 97.6338-6.86071 93.7542-10.7344L69.3475-35.1986L93.7542-59.6002C97.6338-63.4794 97.5822-70.2193 93.583-74.213C89.584-78.2009 82.8497-78.258 78.9757-74.3843L54.5689-49.9772L30.0531-74.4414C26.4023-78.0867 19.4341-78.2635 15.4404-74.2701C11.4524-70.2709 11.6237-63.3082 15.2691-59.6573L39.7903-35.1986L15.2691-10.6774C11.6237-7.032 11.4469-0.0637922 15.4404 3.92963Z"/>
  </g>
  <g id="Heavy-M" transform="matrix(1 0 0 1 2582.95 1126)">
   <path d="M15.0331 3.53651C18.4967 6.98377 24.4788 6.8529 27.6666 3.66738L53.7634-22.4481L79.7916 3.62376C83.1352 6.98377 88.9592 6.94014 92.4087 3.49289C95.856 0.0269559 95.8996-5.78058 92.5396-9.12645L66.5113-35.1961L92.5396-61.2056C95.8996-64.5679 95.8724-70.3919 92.4087-73.8391C88.9428-77.2722 83.1352-77.3159 79.7916-73.97L53.7634-47.944L27.6666-74.0136C24.4788-77.185 18.4803-77.3323 15.0331-73.8827C11.6-70.4191 11.7308-64.4371 14.9022-61.2493L41.0154-35.1961L14.9022-9.08283C11.7308-5.91145 11.5835 0.0869868 15.0331 3.53651Z"/>
  </g>
  <g id="Bold-M" transform="matrix(1 0 0 1 2287.13 1126)">
   <path d="M14.5775 3.09675C17.4421 5.93272 22.327 5.84707 24.9968 3.1824L52.8623-24.7168L80.7044 3.15385C83.4546 5.93272 88.2541 5.90417 91.0952 3.0682C93.9311 0.198484 93.9597-4.5723 91.1808-7.32768L63.3387-35.1932L91.1808-63.0016C93.9597-65.7856 93.9597-70.585 91.0952-73.4209C88.2254-76.2334 83.4546-76.262 80.7044-73.5066L52.8623-45.6696L24.9968-73.5351C22.327-76.1763 17.4134-76.2906 14.5775-73.4495C11.765-70.5849 11.8506-65.6999 14.4918-63.0301L42.3859-35.1932L14.4918-7.29914C11.8506-4.65795 11.7364 0.255655 14.5775 3.09675Z"/>
  </g>
  <g id="Semibold-M" transform="matrix(1 0 0 1 1991.03 1126)">
   <path d="M14.2634 2.79358C16.715 5.20813 20.8437 5.15366 23.1564 2.84805L52.2411-26.2808L81.3337 2.8299C83.6748 5.20813 87.7679 5.18997 90.1896 2.77543C92.6041 0.316735 92.6223-3.73933 90.2441-6.08762L61.1515-35.1912L90.2441-64.2396C92.6223-66.625 92.6412-70.7181 90.1896-73.1326C87.7309-75.5172 83.6748-75.5354 81.3337-73.1871L52.2411-44.1016L23.1564-73.2053C20.8437-75.4809 16.6779-75.5724 14.2634-73.1508C11.8788-70.6992 11.9332-66.5705 14.2089-64.2578L43.3307-35.1912L14.2089-6.06947C11.9332-3.7938 11.8417 0.371934 14.2634 2.79358Z"/>
  </g>
  <g id="Medium-M" transform="matrix(1 0 0 1 1694.79 1126)">
   <path d="M14.0252 2.56371C16.1637 4.65872 19.7189 4.62789 21.7608 2.59454L51.7701-27.4667L81.8108 2.58426C83.8418 4.65872 87.3994 4.64844 89.503 2.55343C91.598 0.406397 91.6082-3.10773 89.5338-5.14736L59.4931-35.1897L89.5338-65.1784C91.6082-67.2615 91.6414-70.819 89.503-72.914C87.3559-74.9742 83.8418-74.9845 81.8108-72.9449L51.7701-42.9128L21.7608-72.9551C19.7189-74.9537 16.1202-75.0279 14.0252-72.9243C11.965-70.7859 11.9959-67.2306 13.9944-65.1887L44.047-35.1897L13.9944-5.13708C11.9959-3.13856 11.9216 0.460101 14.0252 2.56371Z"/>
  </g>
  <g id="Regular-M" transform="matrix(1 0 0 1 1398.69 1126)">
   <path d="M13.7146 2.26387C15.4446 3.94209 18.2518 3.94209 19.9406 2.26387L51.1557-29.0135L82.4331 2.26387C84.0596 3.94209 86.9186 3.94209 88.6074 2.26387C90.2856 0.523348 90.2856-2.2839 88.6074-3.92092L57.3299-35.1878L88.6074-66.4029C90.2856-68.0917 90.3373-70.9507 88.6074-72.6289C86.8668-74.2659 84.0596-74.2659 82.4331-72.6289L51.1557-41.362L19.9406-72.6289C18.2518-74.2659 15.3928-74.3177 13.7146-72.6289C12.0776-70.8989 12.0776-68.0917 13.7146-66.4029L44.9814-35.1878L13.7146-3.92092C12.0776-2.2839 12.0258 0.575102 13.7146 2.26387Z"/>
  </g>
  <g id="Light-M" transform="matrix(1 0 0 1 1102.68 1126)">
   <path d="M13.4237 1.88743C14.7259 3.15499 16.8316 3.15499 18.1268 1.88743L50.4541-30.5022L82.8438 1.88743C84.0767 3.15499 86.217 3.15499 87.5123 1.88743C88.7798 0.55757 88.7798-1.54813 87.5123-2.80871L55.1226-35.1707L87.5123-67.498C88.7798-68.7932 88.8145-70.9336 87.5123-72.2011C86.1824-73.4617 84.0767-73.4617 82.8438-72.2011L50.4541-39.8392L18.1268-72.2011C16.8316-73.4617 14.6912-73.4963 13.4237-72.2011C12.1631-70.8989 12.1631-68.7932 13.4237-67.498L45.7857-35.1707L13.4237-2.80871C12.1631-1.54813 12.1285 0.592213 13.4237 1.88743Z"/>
  </g>
  <g id="Thin-M" transform="matrix(1 0 0 1 806.896 1126)">
   <path d="M13.039 1.38956C13.7754 2.11398 14.9533 2.11398 15.728 1.38956L49.5263-32.4711L83.3869 1.38956C84.0993 2.11398 85.2892 2.11398 86.0639 1.38956C86.7883 0.602831 86.7883-0.575017 86.0639-1.33772L52.2033-35.148L86.0639-68.9464C86.7883-69.7211 86.8003-70.9109 86.0639-71.6354C85.2772-72.3981 84.0993-72.3981 83.3869-71.6354L49.5263-37.825L15.728-71.6354C14.9533-72.3981 13.7634-72.4101 13.039-71.6354C12.2763-70.8989 12.2763-69.7211 13.039-68.9464L46.8493-35.148L13.039-1.33772C12.2763-0.575017 12.2643 0.614843 13.039 1.38956Z"/>
  </g>
  <g id="Ultralight-M" transform="matrix(1 0 0 1 510.66 1126)">
   <path d="M12.8419 1.13455C13.2886 1.58078 13.9912 1.58078 14.4993 1.13455L49.051-33.4795L83.6651 1.13455C84.1109 1.58078 84.8139 1.58078 85.3221 1.13455C85.7683 0.626014 85.7683-0.076592 85.3221-0.584288L50.708-35.1365L85.3221-69.6882C85.7683-70.1963 85.7687-70.8993 85.3221-71.3456C84.8135-71.8533 84.1109-71.8533 83.6651-71.3456L49.051-36.7934L14.4993-71.3456C13.9912-71.8533 13.2882-71.8537 12.8419-71.3456C12.3342-70.8989 12.3342-70.1963 12.8419-69.6882L47.3941-35.1365L12.8419-0.584288C12.3342-0.076592 12.3338 0.626435 12.8419 1.13455Z"/>
  </g>
  <g id="Black-S" transform="matrix(1 0 0 1 2890.46 696)">
   <path d="M12.207-4.44336C15.4785-1.17188 21.1914-1.31836 24.1699-4.29688L42.9688-23.0957L61.6699-4.3457C64.8438-1.17188 70.3613-1.2207 73.6328-4.49219C76.9043-7.76367 76.9531-13.2812 73.7793-16.4551L55.0781-35.2051L73.7793-53.9062C76.9531-57.0801 76.9043-62.5977 73.6328-65.8691C70.3613-69.1406 64.8438-69.1895 61.6699-66.0156L42.9688-47.3145L24.1699-66.0645C21.1914-69.043 15.4785-69.1895 12.207-65.918C8.93555-62.6465 9.08203-56.9336 12.0605-53.9551L30.8594-35.2051L12.0605-16.4062C9.08203-13.4277 8.93555-7.71484 12.207-4.44336Z"/>
  </g>
  <g id="Heavy-S" transform="matrix(1 0 0 1 2594.34 696)">
   <path d="M11.8959-4.73147C14.764-1.87487 19.7278-1.98678 22.3606-4.61956L42.3695-24.64L62.3153-4.65686C65.0858-1.87487 69.9119-1.91217 72.7685-4.76877C75.6251-7.6369 75.6624-12.4515 72.8804-15.222L52.9346-35.2051L72.8804-55.1394C75.6624-57.9214 75.6366-62.7475 72.7685-65.6041C69.9003-68.4492 65.0858-68.4865 62.3153-65.716L42.3695-45.7702L22.3606-65.7533C19.7278-68.3745 14.7525-68.498 11.8959-65.6414C9.05079-62.7733 9.1627-57.8095 11.784-55.1767L31.8044-35.2051L11.784-15.1847C9.1627-12.5634 9.03927-7.58807 11.8959-4.73147Z"/>
  </g>
  <g id="Bold-S" transform="matrix(1 0 0 1 2298.29 696)">
   <path d="M11.5479-5.05371C13.9648-2.66113 18.0908-2.73438 20.3369-4.98047L41.6992-26.3672L63.0371-5.00488C65.3564-2.66113 69.4092-2.68555 71.8018-5.07812C74.1943-7.49512 74.2188-11.5234 71.875-13.8428L50.5371-35.2051L71.875-56.5186C74.2188-58.8623 74.2188-62.915 71.8018-65.3076C69.3848-67.6758 65.3564-67.7002 63.0371-65.3809L41.6992-44.043L20.3369-65.4053C18.0908-67.627 13.9404-67.7246 11.5479-65.332C9.17969-62.915 9.25293-58.7891 11.4746-56.543L32.8613-35.2051L11.4746-13.8184C9.25293-11.5967 9.15527-7.44629 11.5479-5.05371Z"/>
  </g>
  <g id="Semibold-S" transform="matrix(1 0 0 1 2002.04 696)">
   <path d="M11.3079-5.27588C13.4139-3.20322 16.9622-3.2498 18.9417-5.2293L41.2371-27.558L63.5348-5.24482C65.5431-3.20322 69.0626-3.21875 71.1353-5.29141C73.2079-7.39736 73.2234-10.8836 71.1818-12.8919L48.8842-35.2051L71.1818-57.4694C73.2234-59.511 73.2412-63.0306 71.1353-65.1032C69.0293-67.1426 65.5431-67.1581 63.5348-65.1498L41.2371-42.8521L18.9417-65.1653C16.9622-67.1115 13.3806-67.1914 11.3079-65.1188C9.26855-63.0128 9.31514-59.4645 11.2613-57.485L33.59-35.2051L11.2613-12.8764C9.31514-10.9302 9.23525-7.34854 11.3079-5.27588Z"/>
  </g>
  <g id="Medium-S" transform="matrix(1 0 0 1 1705.67 696)">
   <path d="M11.126-5.44434C12.9961-3.61426 16.1064-3.64062 17.8838-5.41797L40.8867-28.4609L63.9121-5.42676C65.6846-3.61426 68.7998-3.62305 70.6299-5.45312C72.46-7.32324 72.4688-10.3984 70.6562-12.1709L47.6309-35.2051L70.6562-58.1904C72.4688-60.0029 72.5-63.1182 70.6299-64.9482C68.7598-66.7383 65.6846-66.7471 63.9121-64.9746L40.8867-41.9492L17.8838-64.9834C16.1064-66.7207 12.9561-66.7871 11.126-64.957C9.33594-63.0869 9.3623-59.9766 11.0996-58.1992L34.1426-35.2051L11.0996-12.1621C9.3623-10.4248 9.2959-7.27441 11.126-5.44434Z"/>
  </g>
  <g id="Regular-S" transform="matrix(1 0 0 1 1409.41 696)">
   <path d="M10.8887-5.66406C12.4512-4.15039 14.9902-4.15039 16.5039-5.66406L40.4297-29.6387L64.4043-5.66406C65.8691-4.15039 68.457-4.15039 69.9707-5.66406C71.4844-7.22656 71.4844-9.76562 69.9707-11.2305L45.9961-35.2051L69.9707-59.1309C71.4844-60.6445 71.5332-63.2324 69.9707-64.7461C68.4082-66.2109 65.8691-66.2109 64.4043-64.7461L40.4297-40.7715L16.5039-64.7461C14.9902-66.2109 12.4023-66.2598 10.8887-64.7461C9.42383-63.1836 9.42383-60.6445 10.8887-59.1309L34.8633-35.2051L10.8887-11.2305C9.42383-9.76562 9.375-7.17773 10.8887-5.66406Z"/>
  </g>
  <g id="Light-S" transform="matrix(1 0 0 1 1113.32 696)">
   <path d="M10.6313-5.99707C11.8154-4.84667 13.7339-4.84667 14.8994-5.99707L39.8091-30.9556L64.7676-5.99707C65.8843-4.84667 67.8364-4.84667 69.002-5.99707C70.1524-7.19629 70.1524-9.11475 69.002-10.2466L44.0435-35.1899L69.002-60.0996C70.1524-61.2651 70.186-63.2173 69.002-64.3677C67.8027-65.4995 65.8843-65.4995 64.7676-64.3677L39.8091-39.4243L14.8994-64.3677C13.7339-65.4995 11.7817-65.5332 10.6313-64.3677C9.49951-63.1836 9.49951-61.2651 10.6313-60.0996L35.5747-35.1899L10.6313-10.2466C9.49951-9.11475 9.46582-7.1626 10.6313-5.99707Z"/>
  </g>
  <g id="Thin-S" transform="matrix(1 0 0 1 817.434 696)">
   <path d="M10.291-6.43749C10.9746-5.76757 12.0723-5.76757 12.7774-6.43749L38.9883-32.6972L65.248-6.43749C65.9043-5.76757 67.0156-5.76757 67.7207-6.43749C68.3906-7.15625 68.3906-8.25392 67.7207-8.94533L41.461-35.1699L67.7207-61.3808C68.3906-62.0859 68.4043-63.1973 67.7207-63.8672C67.002-64.5586 65.9043-64.5586 65.248-63.8672L38.9883-37.6426L12.7774-63.8672C12.0723-64.5586 10.9609-64.5723 10.291-63.8672C9.59961-63.1836 9.59961-62.0859 10.291-61.3808L36.5156-35.1699L10.291-8.94533C9.59961-8.25392 9.58594-7.14258 10.291-6.43749Z"/>
  </g>
  <g id="Ultralight-S" transform="matrix(1 0 0 1 521.143 696)">
   <path d="M10.1167-6.66308C10.544-6.23924 11.2212-6.23924 11.6905-6.66308L38.5679-33.5893L65.4941-6.66308C65.9146-6.23924 66.5952-6.23924 67.0645-6.66308C67.4883-7.13574 67.4883-7.813 67.0645-8.27883L40.1382-35.1597L67.0645-62.0371C67.4883-62.5063 67.4917-63.187 67.0645-63.6108C66.5918-64.0767 65.9146-64.0767 65.4941-63.6108L38.5679-36.73L11.6905-63.6108C11.2212-64.0767 10.5405-64.0801 10.1167-63.6108C9.65088-63.1836 9.65088-62.5063 10.1167-62.0371L36.9975-35.1597L10.1167-8.27883C9.65088-7.813 9.64746-7.13232 10.1167-6.66308Z"/>
  </g>
 </g>
</svg>
